/* XPM */
static char * icewm2_xpm[] = {
"48 20 8 1",
" 	c None",
".	c #0F1114",
"+	c #E0DCD4",
"@	c #F0EFEB",
"#	c #B4BCC4",
"$	c #282C34",
"%	c #98A4AC",
"&	c #676D77",
"                                                ",
"                                                ",
"                                                ",
"                                                ",
"                   ... .... ... .... ....       ",
"                  .+@@.+@@@.+@@.+@@@.+@@@.      ",
"     ..           .+@@.+@@@.+@@.+@@@.+@@@.      ",
"    .+@.          ..@@.+@@@.+@@.+@@@.+@@@.    ..",
"    .+@. ............@+@@@@+@@@.+@@@++@@@.   .@@",
"    .+@..@@@@@.+@@@@@.@@@@@@@@@.+@.....@@.   .@@",
"    .+@.+@@+++.+@..@@.@@@.@@@@..+@.@@@.@@.  .@@@",
"    .+@.+@@....+@++++.@@..@@@+..+.####......##@@",
"    .+@.+@@@@@.+@@@@@.++..++++$..%#%#%#%%%%%%##@",
"    .++..+++++..++++..... .....%%%%#%%%#%%%%#%#@",
"     ..  ..... .....        ..%%%%%%%%%%%%%%%%##",
"                         ...%%%%%%%%%%%%%%%%%#%%",
"            .............%%%%&%%&%%&%%&%%&%%&%%%",
"           ..&&&&&&&&&&&&&%&&%&&%&&%&&%&&%&&%&&%",
"       ....&&&&&&&&&&&&&&%&&&&&&&&&&&&&&&&&%&&%&",
"      .&&&&&&&&&&&&&&&&&&&&&&&&&&&&&&&&&&&&&&&&&"};
