/* XPM */
static char * maximize_xpm[] = {
"16 16 2 1",
" 	c None",
".	c #B8C4B8",
"                ",
"  ............  ",
" .............. ",
" .............. ",
" .............. ",
" .............. ",
" .............. ",
" .............. ",
" .............. ",
" .............. ",
" .............. ",
" .............. ",
" .............. ",
" .............. ",
"  ............  ",
"                "};
